<svg width="570" height="100" viewBox="0 0 570 100" fill="none" xmlns="http://www.w3.org/2000/svg">
<path d="M23.9259 84.6045V31.2394L57.4802 15.2174L90.9942 31.2394V84.6045H80.3471V49.4555H71.9183V84.6045H61.5131V49.4555H53.0843V84.6045H42.9212V49.4555H34.2907V84.6045H23.9259Z" fill="black"/>
<path d="M214.9 42.0601H209.307V21.2891H201.569V16.0033H222.638V21.2891H214.9V42.0601Z" fill="black"/>
<path d="M229.121 42.0601H234.714V31.6002H245.032V42.0601H250.626V16.0033H245.032V26.3143H234.714V16.0033H229.121V42.0601Z" fill="black"/>
<path d="M278.262 42.0601H258.9V16.0033H278.081V21.103H264.458V26.3888H276.447V31.4885H264.458V36.9604H278.262V42.0601Z" fill="black"/>
<path d="M310.402 42.5068C315.306 42.5068 318.211 40.72 320.828 37.8539L317.267 34.1686C315.27 36.0299 313.489 37.2209 310.583 37.2209C306.225 37.2209 303.208 33.4987 303.208 29.0317V28.9573C303.208 24.4904 306.296 20.8424 310.583 20.8424C313.127 20.8424 315.125 21.9591 317.086 23.7831L320.645 19.5768C318.285 17.1945 315.415 15.5566 310.619 15.5566C302.81 15.5566 297.36 21.6241 297.36 29.0317V29.1062C297.36 36.5882 302.918 42.5068 310.402 42.5068Z" fill="black"/>
<path d="M345.758 42.0601H327.485V16.0033H333.079V36.8487H345.758V42.0601Z" fill="black"/>
<path d="M352.157 42.0601H371.519V36.9604H357.715V31.4885H369.702V26.3888H357.715V21.103H371.337V16.0033H352.157V42.0601Z" fill="black"/>
<path d="M391.713 42.2463H386.774L376.493 16.0033H382.668L389.317 34.3548L395.965 16.0033H401.994L391.713 42.2463Z" fill="black"/>
<path d="M408.097 42.0601H427.46V36.9604H413.655V31.4885H425.643V26.3888H413.655V21.103H427.278V16.0033H408.097V42.0601Z" fill="black"/>
<path d="M452.886 42.0601H434.614V16.0033H440.207V36.8487H452.886V42.0601Z" fill="black"/>
<path fill-rule="evenodd" clip-rule="evenodd" d="M457.105 42.0601H462.808L465.132 36.2159H475.886L478.21 42.0601H484.059L473.162 15.8172H468.003L457.105 42.0601ZM467.131 31.1535L470.509 22.7036L473.888 31.1535H467.131Z" fill="black"/>
<path d="M495.685 42.0601H490.163V16.0033H495.321L507.236 32.0469V16.0033H512.758V42.0601H508L495.685 25.4954V42.0601Z" fill="black"/>
<path fill-rule="evenodd" clip-rule="evenodd" d="M521.042 42.0601H530.961C538.952 42.0601 544.474 36.3648 544.474 29.0317V28.9572C544.474 21.6241 538.952 16.0033 530.961 16.0033H521.042V42.0601ZM526.638 36.886V21.1774H530.961C535.538 21.1774 538.624 24.4159 538.624 29.0317V29.1062C538.624 33.722 535.538 36.886 530.961 36.886H526.638Z" fill="black"/>
<path d="M208.871 84.6019H203.385V58.5451H209.416L216.099 69.5634L222.783 58.5451H228.814V84.6019H223.256V67.5905L216.099 78.7205H215.954L208.871 67.7022V84.6019Z" fill="black"/>
<path d="M247.709 85.0114C254.54 85.0114 258.863 81.1401 258.863 73.2486V58.5451H253.267V73.4719C253.267 77.6039 251.197 79.7255 247.783 79.7255C244.368 79.7255 242.297 77.5294 242.297 73.2858V58.5451H236.703V73.4347C236.703 81.1029 240.881 85.0114 247.709 85.0114Z" fill="black"/>
<path d="M285.122 76.8966C285.122 82.0708 281.27 84.9741 275.786 84.9741C271.934 84.9741 268.049 83.5969 264.996 80.8051L268.301 76.7477C270.59 78.6834 272.988 79.9117 275.895 79.9117C278.184 79.9117 279.564 78.9811 279.564 77.4548V77.3805C279.564 75.9288 278.691 75.1843 274.442 74.0675C269.319 72.7274 266.014 71.2757 266.014 66.1016V66.0271C266.014 61.2997 269.719 58.1728 274.913 58.1728C278.619 58.1728 281.779 59.364 284.358 61.4857L281.453 65.8038C279.2 64.2032 276.985 63.2353 274.841 63.2353C272.698 63.2353 271.572 64.2403 271.572 65.506V65.5804C271.572 67.2927 272.662 67.8511 277.057 69.0051C282.215 70.3823 285.122 72.2808 285.122 76.8221V76.8966Z" fill="black"/>
<path d="M292.156 84.6019H311.518V79.5022H297.714V74.0303H309.702V68.9306H297.714V63.6447H311.337V58.5451H292.156V84.6019Z" fill="black"/>
<path d="M340.431 73.2486C340.431 81.1401 336.108 85.0114 329.28 85.0114C322.45 85.0114 318.272 81.1029 318.272 73.4347V58.5451H323.867V73.2858C323.867 77.5294 325.937 79.7255 329.352 79.7255C332.768 79.7255 334.838 77.6039 334.838 73.4719V58.5451H340.431V73.2486Z" fill="black"/>
<path d="M348.309 84.6019H353.795V67.7022L360.878 78.7205H361.024L368.18 67.5905V84.6019H373.738V58.5451H367.709L361.024 69.5634L354.34 58.5451H348.309V84.6019Z" fill="black"/>
<path fill-rule="evenodd" clip-rule="evenodd" d="M420.999 71.5735C420.999 78.9811 415.296 85.0486 407.449 85.0486C399.602 85.0486 393.971 79.0556 393.971 71.6479V71.5735C393.971 64.166 399.674 58.0983 407.521 58.0983C415.367 58.0983 420.999 64.0915 420.999 71.499V71.5735ZM399.819 71.5735C399.819 76.0404 403.017 79.7627 407.521 79.7627C412.027 79.7627 415.151 76.1148 415.151 71.6479V71.5735C415.151 67.1066 411.953 63.3842 407.449 63.3842C402.945 63.3842 399.819 67.0321 399.819 71.499V71.5735Z" fill="black"/>
<path d="M428.141 84.6019H433.736V74.5142H445.868V69.3028H433.736V63.7564H447.503V58.5451H428.141V84.6019Z" fill="black"/>
<path fill-rule="evenodd" clip-rule="evenodd" d="M470.754 84.6019H465.051L475.95 58.359H481.108L492.007 84.6019H486.157L483.832 78.7577H473.08L470.754 84.6019ZM478.455 65.2453L475.077 73.6952H481.834L478.455 65.2453Z" fill="black"/>
<path fill-rule="evenodd" clip-rule="evenodd" d="M498.111 84.6019H503.705V76.2636H508.099L513.55 84.6019H520.088L513.876 75.296C517.109 74.0675 519.324 71.4247 519.324 67.2183V67.1438C519.324 64.6871 518.563 62.6397 517.145 61.188C515.475 59.4757 512.967 58.5451 509.734 58.5451H498.111V84.6019ZM503.705 71.2013V63.7192H509.263C511.987 63.7192 513.657 64.9848 513.657 67.4417V67.516C513.657 69.7122 512.096 71.2013 509.372 71.2013H503.705Z" fill="black"/>
<path d="M538.057 84.6019H532.463V63.8309H524.726V58.5451H545.794V63.8309H538.057V84.6019Z" fill="black"/>
<path d="M104.905 16.0024H172.198V26.6665H104.905V16.0024Z" fill="black"/>
<path d="M104.905 35.367H172.198V46.0311H104.905V35.367Z" fill="black"/>
<path d="M104.905 54.7323H172.198V65.3965H104.905V54.7323Z" fill="black"/>
<path d="M104.905 74.097H172.198V84.7611H104.905V74.097Z" fill="black"/>
</svg>
